
<svg xmlns="http://www.w3.org/2000/svg" width="560" height="980" viewBox="0 0 560 980">
  <defs>
    <linearGradient id="bg" x1="0" y1="0" x2="1" y2="1">
      <stop offset="0%" stop-color="#e0f2fe"/>
      <stop offset="100%" stop-color="#f0fdf4"/>
    </linearGradient>
    <filter id="shadow" x="-20%" y="-20%" width="140%" height="140%">
      <feDropShadow dx="0" dy="12" stdDeviation="14" flood-color="#0f172a" flood-opacity="0.15"/>
    </filter>
  </defs>
  <rect width="100%" height="100%" fill="url(#bg)"/>
  <style>
    .title { font: 700 28px 'Microsoft YaHei', sans-serif; fill: #0f172a; }
    .sub { font: 500 14px 'Microsoft YaHei', sans-serif; fill: #334155; }
    .white { fill: rgba(255,255,255,0.86); stroke: rgba(255,255,255,0.7); stroke-width: 1.2; rx: 24; ry: 24; filter: url(#shadow); }
    .pill { fill: #bbf7d0; rx: 16; ry: 16; }
    .txt { font: 600 17px 'Microsoft YaHei', sans-serif; fill: #0f172a; }
    .small { font: 500 13px 'Microsoft YaHei', sans-serif; fill: #475569; }
    .tiny { font: 500 11px 'Microsoft YaHei', sans-serif; fill: #64748b; }
  </style>
  <text x="52" y="64" class="title">首页高保真稿</text>
  <text x="52" y="92" class="sub">视觉关键词：数据看板、绿色未来感、AI 陪伴</text>

  <circle cx="440" cy="120" r="70" fill="#93c5fd" opacity="0.35"/>
  <circle cx="110" cy="180" r="54" fill="#86efac" opacity="0.30"/>
  <rect x="40" y="120" width="480" height="180" class="white"/>
  <circle cx="160" cy="210" r="72" fill="#0f766e" opacity="0.08"/>
  <circle cx="160" cy="210" r="55" fill="none" stroke="#0f766e" stroke-width="12" opacity="0.35"/>
  <text x="130" y="204" class="txt" style="font-size:34px;">1284</text>
  <text x="148" y="232" class="small">今日目标 80%</text>
  <text x="270" y="182" class="txt">碳迹同行</text>
  <text x="270" y="215" class="small">离下一份绿色权益又近了一步</text>
  <rect x="270" y="235" width="132" height="34" class="pill"/>
  <text x="292" y="257" class="tiny">较昨日提升 +12%</text>
  <rect x="40" y="330" width="480" height="160" class="white"/>
  <circle cx="110" cy="410" r="34" fill="#0ea5e9" opacity="0.18"/>
  <text x="86" y="418" class="txt">AI</text>
  <text x="165" y="385" class="txt">小碳建议</text>
  <text x="165" y="415" class="small">检测到你今天步行了 3 公里，是否立即记录？</text>
  <rect x="165" y="440" width="120" height="34" class="pill"/>
  <rect x="300" y="440" width="120" height="34" fill="#e2e8f0" rx="16" ry="16"/>
  <text x="193" y="462" class="tiny">马上记录</text>
  <text x="331" y="462" class="tiny">稍后再说</text>
  <rect x="40" y="520" width="230" height="150" class="white"/>
  <rect x="290" y="520" width="230" height="150" class="white"/>
  <text x="68" y="566" class="txt">旧物回收</text>
  <text x="68" y="595" class="small">一键进入可回收物记录</text>
  <text x="318" y="566" class="txt">校园森林</text>
  <text x="318" y="595" class="small">查看树木认养与绿色活动</text>
  <rect x="40" y="700" width="480" height="180" class="white"/>
  <text x="68" y="745" class="txt">近期成就</text>
  <rect x="68" y="770" width="424" height="42" fill="#f8fafc" rx="14" ry="14"/>
  <rect x="68" y="825" width="424" height="42" fill="#f8fafc" rx="14" ry="14"/>
  <text x="88" y="797" class="small">本周减碳累计 +24.8kg</text>
  <text x="88" y="852" class="small">积分账户余额 1284 分</text>
  <rect x="40" y="910" width="480" height="44" fill="rgba(255,255,255,0.75)" rx="22" ry="22"/>
  <text x="92" y="938" class="tiny">首页</text><text x="172" y="938" class="tiny">日志</text><text x="252" y="938" class="tiny">广场</text><text x="332" y="938" class="tiny">商城</text><text x="412" y="938" class="tiny">报告</text>
</svg>
