
<svg xmlns="http://www.w3.org/2000/svg" width="560" height="980" viewBox="0 0 560 980">
  <defs>
    <linearGradient id="bg" x1="0" y1="0" x2="1" y2="1">
      <stop offset="0%" stop-color="#eff6ff"/>
      <stop offset="100%" stop-color="#dcfce7"/>
    </linearGradient>
    <filter id="shadow" x="-20%" y="-20%" width="140%" height="140%">
      <feDropShadow dx="0" dy="12" stdDeviation="14" flood-color="#0f172a" flood-opacity="0.15"/>
    </filter>
  </defs>
  <rect width="100%" height="100%" fill="url(#bg)"/>
  <style>
    .title { font: 700 28px 'Microsoft YaHei', sans-serif; fill: #0f172a; }
    .sub { font: 500 14px 'Microsoft YaHei', sans-serif; fill: #334155; }
    .white { fill: rgba(255,255,255,0.86); stroke: rgba(255,255,255,0.7); stroke-width: 1.2; rx: 24; ry: 24; filter: url(#shadow); }
    .pill { fill: #fde68a; rx: 16; ry: 16; }
    .txt { font: 600 17px 'Microsoft YaHei', sans-serif; fill: #0f172a; }
    .small { font: 500 13px 'Microsoft YaHei', sans-serif; fill: #475569; }
    .tiny { font: 500 11px 'Microsoft YaHei', sans-serif; fill: #64748b; }
  </style>
  <text x="52" y="64" class="title">碳报告高保真稿</text>
  <text x="52" y="92" class="sub">视觉关键词：数据故事化、层级清晰、趋势突出</text>

  <rect x="40" y="120" width="480" height="170" class="white"/>
  <text x="70" y="170" class="tiny">WEEKLY OVERVIEW</text>
  <text x="70" y="220" class="txt" style="font-size:42px;">24.8 kg</text>
  <text x="70" y="250" class="small">本周累计碳减排</text>
  <rect x="70" y="265" width="140" height="30" class="pill"/>
  <text x="92" y="284" class="tiny">较上一日变化 +12%</text>
  <rect x="40" y="320" width="145" height="110" class="white"/>
  <rect x="207" y="320" width="145" height="110" class="white"/>
  <rect x="374" y="320" width="145" height="110" class="white"/>
  <text x="66" y="365" class="txt">24.8 kg</text><text x="66" y="392" class="small">本周减碳</text>
  <text x="233" y="365" class="txt">126 分</text><text x="233" y="392" class="small">本周积分</text>
  <text x="400" y="365" class="txt">18 次</text><text x="400" y="392" class="small">行为次数</text>
  <rect x="40" y="460" width="480" height="250" class="white"/>
  <text x="70" y="505" class="txt">周减碳趋势</text>
  <line x1="80" y1="665" x2="480" y2="665" stroke="#94a3b8" stroke-width="2"/>
  <rect x="110" y="590" width="36" height="75" fill="#bfdbfe" rx="12" ry="12"/>
  <rect x="180" y="560" width="36" height="105" fill="#bfdbfe" rx="12" ry="12"/>
  <rect x="250" y="535" width="36" height="130" fill="#bfdbfe" rx="12" ry="12"/>
  <rect x="320" y="505" width="36" height="160" fill="#34d399" rx="12" ry="12"/>
  <rect x="390" y="555" width="36" height="110" fill="#bfdbfe" rx="12" ry="12"/>
  <text x="112" y="690" class="tiny">周一</text><text x="182" y="690" class="tiny">周二</text><text x="252" y="690" class="tiny">周三</text><text x="322" y="690" class="tiny">周四</text><text x="392" y="690" class="tiny">周五</text>
  <rect x="40" y="740" width="480" height="70" class="white"/>
  <text x="70" y="783" class="txt">本周最佳减碳日：周五 · 5.4kg</text>
  <rect x="40" y="835" width="480" height="84" class="white"/>
  <text x="70" y="882" class="txt">让小碳解读这份周报</text>
  <text x="70" y="907" class="small">看看你这周最值得继续坚持的低碳行为</text>
</svg>
